<?xml version="1.0" encoding="utf-8"?>
<!-- Generator: Adobe Illustrator 23.0.3, SVG Export Plug-In . SVG Version: 6.00 Build 0)  -->
<svg version="1.1" id="Layer_1" xmlns="http://www.w3.org/2000/svg" xmlns:xlink="http://www.w3.org/1999/xlink" x="0px" y="0px"
	 viewBox="0 0 1920 1080" style="enable-background:new 0 0 1920 1080;" xml:space="preserve">
<style type="text/css">
	.st0{fill:#3187F4;}
	.st1{fill:#FDFEFE;}
	.st2{fill:#FDFDFE;}
	.st3{fill:#98D4F9;}
</style>
<path class="st0" d="M509.9,323.7c108.9,0,217.8,0,326.7,0c5.6,1.9,11.5,3,16.7,6c18.2,10.5,29.2,24.9,29.1,47.2
	c-0.4,60.5-0.2,121.1-0.1,181.6c0,13.1-5.2,23.2-15.5,30.8c-11.2,8.4-24,11.8-37.8,11.8c-74.9,0-149.8,0-224.6,0
	c-2.3,0-4.3,0.5-6.3,1.7c-32.1,19-64.3,37.9-96.4,56.8c-2.5,1.4-4.9,2.9-7.4,4.3c-0.7-1.2-0.1-2,0.1-2.8c5-19.1,10-38.2,15.1-57.3
	c0.6-2.3,0.4-3.2-2.2-3.4c-2.5-0.2-5.1-0.7-7.5-1.3c-18.7-5.1-35.4-12.7-41.9-33.3c0-66.2,0-132.4,0-198.7
	c1.5-5.1,3.3-10.1,6.3-14.5c6.9-10.2,16.3-17.3,27.2-22.8C497.4,326.9,503.7,325.6,509.9,323.7z M747.3,455.3
	c0,15.5,12.8,28.1,28.3,28.1c15.4,0,28.2-12.9,28.1-28.3c-0.2-15.5-12.9-28-28.4-28C760,427.2,747.2,440,747.3,455.3z M592.7,455.3
	c0-15.6-12.5-28.2-28.1-28.1c-15.4,0-28,12.6-28,27.9c0,15.6,12.4,28.2,28,28.3C580.1,483.5,592.7,470.9,592.7,455.3z M698.1,455.5
	c0.1-15.5-12.3-28.2-27.6-28.3c-15.6-0.1-28.5,12.4-28.6,27.7c-0.1,15.7,12.5,28.5,28.1,28.5C685.5,483.4,698.1,470.9,698.1,455.5z"
	/>
<path class="st1" d="M457.9,565.7c6.4,20.5,23.2,28.2,41.9,33.3c2.4,0.7,5,1.1,7.5,1.3c2.5,0.2,2.8,1.1,2.2,3.4
	c-5.1,19.1-10.1,38.2-15.1,57.3c-0.2,0.8-0.8,1.6-0.1,2.8c2.5-1.4,5-2.8,7.4-4.3c32.1-18.9,64.3-37.8,96.4-56.8c2-1.2,4-1.7,6.3-1.7
	c74.9,0,149.8,0,224.6,0c13.8,0,26.6-3.5,37.8-11.8c10.2-7.7,15.5-17.7,15.5-30.8c-0.2-60.5-0.3-121.1,0.1-181.6
	c0.1-22.2-10.9-36.7-29.1-47.2c-5.2-3-11.1-4.1-16.7-6c40.2,0,80.4,0,120.7-0.1c2.3,0,2.7,0.4,2.7,2.7c-0.1,44.2-0.1,88.4-0.1,132.7
	c-0.2-0.1-0.4-0.1-0.6-0.1c-1.5-16.3-10.6-26.8-26.2-29.7c-6.3-1.2-12.6-0.6-18.9-0.9c-2.9-0.1-3.7,0.7-3.7,3.7
	c0.1,39.2,0.1,78.4,0.1,117.7c0,11,0.4,22-0.2,33c-1.2,23.8-16,41.9-43.4,41.8c-87.2-0.4-174.4-0.1-261.7-0.1c-1,0-2,0.1-3,0
	c-1.5-0.1-1.8,0.6-1.9,2c-0.4,8.4,0.9,16.4,5.8,23.5c10.7,15.6,25.5,23.7,44.5,23.7c66.7,0.1,133.3,0,200,0c2.4,0,4.5,0.6,6.6,1.8
	c23.9,14.1,47.8,28.2,71.7,42.3c1,0.6,2.3,0.9,2.9,2.1c-157,0-314,0-471,0.1c-2.5,0-3.1-0.6-3.1-3.1
	C458,666.4,457.9,616.1,457.9,565.7z"/>
<path class="st0" d="M931.9,719.7c-0.6-1.2-1.9-1.5-2.9-2.1c-23.9-14.1-47.8-28.1-71.7-42.3c-2.1-1.2-4.1-1.8-6.6-1.8
	c-66.7,0-133.3,0.1-200,0c-18.9,0-33.8-8.2-44.5-23.7c-4.9-7.1-6.2-15.1-5.8-23.5c0.1-1.4,0.4-2.1,1.9-2c1,0.1,2,0,3,0
	c87.2,0,174.4-0.2,261.7,0.1c27.3,0.1,42.2-18,43.4-41.8c0.6-11,0.2-22,0.2-33c0-39.2,0-78.4-0.1-117.7c0-3,0.8-3.8,3.7-3.7
	c6.3,0.3,12.7-0.3,18.9,0.9c15.5,2.9,24.7,13.4,26.2,29.7c0,0.4-0.1,0.9-0.1,1.3c0,57.1,0,114.1,0,171.2c0,1.4,0.1,2.9,0.2,4.3
	c-0.8,17.3-10.9,37.8-35.7,37.7c-2.1,0-2.1,1-1.7,2.5c1.2,4.7,2.4,9.4,3.5,14.2c2.3,9.8,5.2,19.5,7,29.4
	C932.4,719.7,932.2,719.7,931.9,719.7z"/>
<path class="st1" d="M932.6,719.7c-1.8-9.9-4.7-19.6-7-29.4c-1.1-4.7-2.3-9.5-3.5-14.2c-0.4-1.5-0.4-2.5,1.7-2.5
	c24.7,0.1,34.8-20.5,35.7-37.7l0.3,0.1l0.2-0.2c0,27.2,0,54.4,0.1,81.7c0,2-0.4,2.4-2.4,2.4C949.3,719.6,940.9,719.7,932.6,719.7z"
	/>
<path class="st2" d="M509.9,323.7c-6.2,1.8-12.6,3.1-18.4,6.1c-10.9,5.4-20.3,12.6-27.2,22.8c-3,4.5-4.8,9.4-6.3,14.5
	c0-13.7,0-27.5-0.1-41.2c0-1.9,0.4-2.2,2.2-2.2C476.7,323.8,493.3,323.7,509.9,323.7z"/>
<path class="st3" d="M959.9,635.7l-0.2,0.2c0,0-0.3-0.1-0.3-0.1c-0.1-1.4-0.2-2.9-0.2-4.3c0-57.1,0-114.1,0-171.2
	c0-0.4,0.1-0.9,0.1-1.3c0.2,0,0.4,0,0.6,0.1C959.9,517.9,959.9,576.8,959.9,635.7z"/>
<path class="st2" d="M747.3,455.3c0-15.2,12.7-28.1,27.9-28.1c15.6-0.1,28.3,12.4,28.4,28c0.2,15.4-12.6,28.3-28.1,28.3
	C760,483.4,747.3,470.8,747.3,455.3z"/>
<path class="st2" d="M592.7,455.3c0,15.6-12.6,28.2-28.1,28.1c-15.6-0.1-28-12.7-28-28.3c0-15.3,12.7-27.9,28-27.9
	C580.2,427.2,592.7,439.7,592.7,455.3z"/>
<path class="st2" d="M698.1,455.5c-0.1,15.4-12.7,27.9-28.1,27.9c-15.6,0-28.3-12.8-28.1-28.5c0.1-15.4,13-27.9,28.6-27.7
	C685.8,427.3,698.2,440,698.1,455.5z"/>
</svg>
